<svg width="58" height="40" viewBox="0 0 58 40" fill="none" xmlns="http://www.w3.org/2000/svg">
<path d="M3.03427 33.7433C3.76712 33.7496 4.31979 33.9126 4.69243 34.232C5.06491 34.5513 5.27944 34.8989 5.33586 35.2747C5.34183 35.3122 5.34681 35.3484 5.34996 35.3826C5.35311 35.4173 5.3546 35.4531 5.3546 35.4908V35.538C5.3483 35.764 5.28127 35.9805 5.15268 36.1874C5.07553 36.3119 4.98113 36.4169 4.86913 36.5027C4.77937 36.5714 4.78784 36.7038 4.88888 36.7545C5.1117 36.8664 5.29056 37.0242 5.42512 37.2277C5.60978 37.5073 5.70236 37.8038 5.70236 38.1175V38.193C5.67714 38.601 5.48618 38.9743 5.12912 39.3133C4.77207 39.6523 4.22422 39.8217 3.48523 39.8217L0.14667 39.8125C0.0655368 39.8124 0 39.7465 0 39.6654V33.8903C0 33.809 0.0658686 33.7432 0.147167 33.7432H3.03427V33.7433ZM2.0479 36.0389C2.0479 36.1202 2.11377 36.1861 2.19507 36.1861H2.837C3.03742 36.1924 3.19537 36.1531 3.31152 36.0685C3.42699 35.9839 3.49452 35.8886 3.51343 35.7821C3.51941 35.7695 3.52289 35.7585 3.52289 35.7491V35.6834C3.52289 35.6739 3.51941 35.663 3.51343 35.6504C3.49452 35.5503 3.43346 35.4594 3.33026 35.3779C3.22706 35.2965 3.08454 35.2558 2.9027 35.2558L2.19673 35.248C2.11476 35.2472 2.04807 35.3132 2.04807 35.3952V36.0389H2.0479ZM2.0479 38.209C2.0479 38.2903 2.11377 38.3561 2.19507 38.3561H3.16601C3.3598 38.3624 3.50414 38.3203 3.59805 38.2294C3.69179 38.1384 3.74207 38.0399 3.74837 37.9334V37.905C3.74837 37.8864 3.74671 37.8675 3.74373 37.8488C3.74024 37.8298 3.73576 37.8081 3.72946 37.7829C3.70457 37.6765 3.64351 37.5796 3.54645 37.4919C3.44923 37.4041 3.3223 37.3603 3.16601 37.3603H2.19507C2.11377 37.3603 2.0479 37.4262 2.0479 37.5075V38.2091V38.209Z" fill="white"/>
<path d="M11.161 33.8406L13.2346 39.6057C13.2691 39.7016 13.1981 39.8027 13.0962 39.8027H11.3725C11.305 39.8027 11.2461 39.7567 11.2298 39.6912L11.0883 39.1249C11.0719 39.0594 11.0132 39.0134 10.9456 39.0134H9.19057C9.12437 39.0134 9.06614 39.0577 9.04872 39.1216L8.89176 39.6942C8.87417 39.758 8.8161 39.8023 8.7499 39.8023H7.04246C6.94059 39.8023 6.86958 39.7013 6.90409 39.6054L8.9777 33.8403C8.99878 33.7819 9.05403 33.7429 9.11608 33.7429H11.0228C11.0848 33.7429 11.1403 33.7819 11.1612 33.8403L11.161 33.8406ZM10.5914 37.5852L10.2045 36.2682C10.1632 36.1276 9.96424 36.1271 9.92243 36.2675L9.52921 37.5845C9.501 37.6789 9.57168 37.7737 9.67024 37.7737H10.4504C10.5486 37.7737 10.6193 37.6793 10.5916 37.585L10.5914 37.5852Z" fill="white"/>
<path d="M17.5532 35.1622C17.4123 35.0744 17.2604 35.018 17.0976 34.9929C17.0601 34.9866 17.0256 34.982 16.9944 34.9788C16.9629 34.9757 16.9317 34.974 16.9003 34.974C16.7877 34.974 16.6845 34.9914 16.5904 35.0256C16.4967 35.0603 16.4369 35.1151 16.412 35.1902V35.2088C16.412 35.2151 16.4086 35.2246 16.4026 35.2372V35.2557C16.3963 35.2684 16.39 35.2838 16.3837 35.3027C16.3837 35.4593 16.5013 35.5859 16.7361 35.6831C16.9708 35.7804 17.2325 35.8569 17.5205 35.9134C17.5328 35.9197 17.5454 35.9244 17.558 35.9275C17.5703 35.9307 17.5829 35.9322 17.5955 35.9322C18.2905 36.0638 18.8417 36.2736 19.2489 36.5615C19.656 36.8497 19.875 37.2786 19.9067 37.8487C19.9067 38.5356 19.5518 39.1807 18.9598 39.5292C18.4271 39.843 17.8407 39.9998 17.201 39.9998C16.4744 39.9998 15.8201 39.8403 15.2374 39.521C14.6955 39.2238 14.4056 38.7393 14.368 38.068C14.3633 37.9849 14.4328 37.9141 14.5161 37.9137L16.1713 37.9056C16.236 37.9053 16.2903 37.9492 16.3117 38.0103C16.3717 38.181 16.4645 38.3056 16.5902 38.3841C16.7406 38.4782 16.9002 38.5377 17.0694 38.5628C17.1006 38.5628 17.1336 38.5643 17.168 38.5674C17.2023 38.5706 17.2353 38.5722 17.2665 38.5722C17.448 38.5722 17.5968 38.5266 17.7127 38.4357C17.8285 38.3451 17.8927 38.2464 17.9053 38.1397V38.1117C17.9053 38.0931 17.9036 38.0742 17.9006 38.0554C17.8972 38.0365 17.8927 38.0211 17.8865 38.0085C17.8676 37.9459 17.8283 37.8863 17.7689 37.8298C17.7093 37.7735 17.6295 37.7297 17.5295 37.6984C17.479 37.6858 17.4291 37.6735 17.379 37.6605C17.3289 37.6483 17.279 37.6357 17.2287 37.623C17.1849 37.6108 17.1409 37.5998 17.0971 37.5904C17.0533 37.5809 17.0065 37.5699 16.9562 37.5573C16.3364 37.4007 15.7646 37.1927 15.2418 36.9325C14.7189 36.6727 14.4574 36.2139 14.4574 35.5564C14.4574 35.5252 14.4589 35.4922 14.462 35.4577C14.4652 35.4233 14.47 35.3903 14.4763 35.3589C14.4763 35.3278 14.4778 35.2979 14.4809 35.2695C14.4841 35.2415 14.4887 35.2148 14.495 35.1899C14.5515 34.7578 14.7751 34.3772 15.1668 34.0484C15.5579 33.7195 16.1139 33.5551 16.8343 33.5551L17.0691 33.5457C17.1066 33.552 17.1456 33.5551 17.1867 33.5551C17.2278 33.5551 17.2663 33.5583 17.304 33.5646C17.8615 33.5895 18.3781 33.737 18.8542 34.0061C19.292 34.2538 19.5683 34.7001 19.6829 35.3453C19.6988 35.4348 19.6265 35.5181 19.5356 35.5177L17.9061 35.5098C17.8479 35.5094 17.7911 35.4764 17.7724 35.4213C17.737 35.3173 17.664 35.2309 17.553 35.1617L17.5532 35.1622Z" fill="white"/>
<path d="M26.3665 33.9566V35.0994C26.3665 35.1807 26.3007 35.2466 26.2194 35.2466H23.6107C23.5294 35.2466 23.4635 35.3124 23.4635 35.3937V35.9076C23.4635 35.9889 23.5294 36.0547 23.6107 36.0547H25.7591C25.8404 36.0547 25.9063 36.1206 25.9063 36.2019V37.3451C25.9063 37.4264 25.8404 37.4922 25.7591 37.4922H23.6107C23.5294 37.4922 23.4635 37.5581 23.4635 37.6394V38.2188C23.4635 38.3001 23.5294 38.366 23.6107 38.366H26.3509C26.4322 38.366 26.4981 38.4318 26.4981 38.5131V39.656C26.4981 39.7372 26.4322 39.8031 26.3509 39.8031H21.5628C21.4815 39.8031 21.4156 39.7372 21.4156 39.656V33.9567C21.4156 33.8754 21.4815 33.8096 21.5628 33.8096H26.2194C26.3007 33.8096 26.3665 33.8754 26.3665 33.9567V33.9566Z" fill="white"/>
<path d="M31.5783 36.9335L32.4671 33.8498C32.4852 33.7867 32.5429 33.7434 32.6084 33.7434H34.7934C34.8747 33.7434 34.9405 33.8093 34.9405 33.8906V39.6557C34.9405 39.737 34.8747 39.8028 34.7934 39.8028H33.2368C33.1555 39.8028 33.0896 39.737 33.0896 39.6557V37.4334C33.0896 37.4284 33.0898 37.4236 33.0903 37.4186L33.2212 36.1202L32.1993 39.696C32.1812 39.7592 32.1235 39.8027 32.0578 39.8027H30.8242C30.7583 39.8027 30.7004 39.7589 30.6825 39.6953L29.6606 36.0545L29.7912 37.4189C29.7917 37.4236 29.7918 37.4282 29.7918 37.433V39.6557C29.7918 39.737 29.726 39.8028 29.6447 39.8028H28.0884C28.0071 39.8028 27.9412 39.737 27.9412 39.6557V33.8906C27.9412 33.8093 28.0071 33.7434 28.0884 33.7434H30.2727C30.3384 33.7434 30.3961 33.7869 30.4142 33.8501L31.2952 36.9331C31.3359 37.0752 31.5371 37.0755 31.5781 36.9335H31.5783Z" fill="white"/>
<path d="M41.5226 33.9566V35.0994C41.5226 35.1807 41.4567 35.2466 41.3754 35.2466H38.7667C38.6854 35.2466 38.6196 35.3124 38.6196 35.3937V35.9076C38.6196 35.9889 38.6854 36.0547 38.7667 36.0547H40.9152C40.9965 36.0547 41.0623 36.1206 41.0623 36.2019V37.3451C41.0623 37.4264 40.9965 37.4922 40.9152 37.4922H38.7667C38.6854 37.4922 38.6196 37.5581 38.6196 37.6394V38.2188C38.6196 38.3001 38.6854 38.366 38.7667 38.366H41.507C41.5883 38.366 41.6542 38.4318 41.6542 38.5131V39.656C41.6542 39.7372 41.5883 39.8031 41.507 39.8031H36.7188C36.6375 39.8031 36.5717 39.7372 36.5717 39.656V33.9567C36.5717 33.8754 36.6375 33.8096 36.7188 33.8096H41.3754C41.4567 33.8096 41.5226 33.8754 41.5226 33.9567V33.9566Z" fill="white"/>
<path d="M45.0858 33.7433C45.1349 33.7433 45.1807 33.7679 45.2081 33.8085L47.2783 36.9L47.2127 35.9278C47.2126 35.9245 47.2124 35.9211 47.2124 35.9178V33.8903C47.2124 33.809 47.2783 33.7432 47.3596 33.7432H49.0476C49.1289 33.7432 49.1947 33.809 49.1947 33.8903V39.6554C49.1947 39.7367 49.1289 39.8026 49.0476 39.8026H47.3581C47.3085 39.8026 47.2622 39.7775 47.2349 39.736L45.1646 36.571L45.23 37.5526C45.2302 37.5559 45.2304 37.5591 45.2304 37.5624V39.6556C45.2304 39.7369 45.1645 39.8027 45.0832 39.8027H43.4612C43.3799 39.8027 43.314 39.7369 43.314 39.6556V33.8905C43.314 33.8092 43.3799 33.7433 43.4612 33.7433H45.0862H45.0858Z" fill="white"/>
<path d="M56.4374 33.8903V35.2308C56.4374 35.3121 56.3716 35.3779 56.2903 35.3779H54.7995C54.7182 35.3779 54.6524 35.4438 54.6524 35.5251V39.6556C54.6524 39.7369 54.5865 39.8027 54.5052 39.8027H52.7418C52.6605 39.8027 52.5947 39.7369 52.5947 39.6556V35.5251C52.5947 35.4438 52.5288 35.3779 52.4475 35.3779H50.9757C50.8944 35.3779 50.8285 35.3121 50.8285 35.2308V33.8903C50.8285 33.809 50.8944 33.7432 50.9757 33.7432H56.2899C56.3712 33.7432 56.4371 33.809 56.4371 33.8903H56.4374Z" fill="white"/>
<path d="M12.9 6.44998C12.9 2.88775 10.0122 0 6.44998 0C2.88775 0 0 2.88775 0 6.44998V24.7243C0 28.2865 2.88775 31.1743 6.44998 31.1743C10.0122 31.1743 12.9 28.2865 12.9 24.7243V6.44998Z" fill="white"/>
<path d="M27.4125 6.44998C27.4125 2.88775 24.5247 0 20.9625 0C17.4003 0 14.5125 2.88775 14.5125 6.44998V24.7243C14.5125 28.2865 17.4003 31.1743 20.9625 31.1743C24.5247 31.1743 27.4125 28.2865 27.4125 24.7243V6.44998Z" fill="white"/>
<path d="M41.925 6.44998C41.925 2.88775 39.0372 0 35.475 0C31.9128 0 29.025 2.88775 29.025 6.44998V24.7243C29.025 28.2865 31.9128 31.1743 35.475 31.1743C39.0372 31.1743 41.925 28.2865 41.925 24.7243V6.44998Z" fill="white"/>
<path d="M56.4374 6.44998C56.4374 2.88775 53.5497 0 49.9875 0C46.4252 0 43.5375 2.88775 43.5375 6.44998V24.7243C43.5375 28.2865 46.4252 31.1743 49.9875 31.1743C53.5497 31.1743 56.4374 28.2865 56.4374 24.7243V6.44998Z" fill="white"/>
</svg>
