<svg width="41" height="40" viewBox="0 0 41 40" fill="none" xmlns="http://www.w3.org/2000/svg">
<path d="M25.3165 9H21.6088V23.9855C21.6088 25.771 20.1828 27.2377 18.4082 27.2377C16.6336 27.2377 15.2076 25.771 15.2076 23.9855C15.2076 22.2319 16.602 20.7971 18.3132 20.7333V16.971C14.5422 17.0348 11.5 20.1275 11.5 23.9855C11.5 27.8754 14.6055 31 18.4399 31C22.2743 31 25.3798 27.8435 25.3798 23.9855V16.3014C26.7742 17.3217 28.4854 17.9275 30.2917 17.9594V14.1971C27.503 14.1015 25.3165 11.8058 25.3165 9Z" fill="white"/>
<rect x="1" y="0.5" width="39" height="39" stroke="white"/>
</svg>
