<svg id="ig" width="41" height="40" viewBox="0 0 41 40" fill="none" xmlns="http://www.w3.org/2000/svg">
    <g id="ig-outer">
        <rect id="ig-rect" x="1" y="0.5" width="39" height="39" stroke="white" />
        <g id="ig-inner">
            <path id="ig-vector1"
                d="M20.5059 11.8011C23.1793 11.8011 23.4959 11.8129 24.5473 11.8597C25.5244 11.9027 26.0521 12.0668 26.4038 12.2036C26.869 12.3833 27.2051 12.6021 27.553 12.9498C27.9047 13.3014 28.1197 13.6335 28.2995 14.0985C28.4363 14.4501 28.6004 14.9814 28.6434 15.9543C28.6903 17.0092 28.7021 17.3256 28.7021 19.9941C28.7021 22.6665 28.6903 22.983 28.6434 24.034C28.6004 25.0107 28.4363 25.5382 28.2995 25.8898C28.1197 26.3548 27.9008 26.6908 27.553 27.0385C27.2012 27.3901 26.869 27.605 26.4038 27.7847C26.0521 27.9215 25.5205 28.0856 24.5473 28.1285C23.492 28.1754 23.1754 28.1871 20.5059 28.1871C17.8324 28.1871 17.5158 28.1754 16.4644 28.1285C15.4873 28.0856 14.9596 27.9215 14.6079 27.7847C14.1428 27.605 13.8066 27.3862 13.4588 27.0385C13.107 26.6869 12.892 26.3548 12.7122 25.8898C12.5754 25.5382 12.4113 25.0068 12.3683 24.034C12.3214 22.9791 12.3097 22.6626 12.3097 19.9941C12.3097 17.3217 12.3214 17.0053 12.3683 15.9543C12.4113 14.9775 12.5754 14.4501 12.7122 14.0985C12.892 13.6335 13.1109 13.2975 13.4588 12.9498C13.8105 12.5982 14.1428 12.3833 14.6079 12.2036C14.9596 12.0668 15.4912 11.9027 16.4644 11.8597C17.5158 11.8129 17.8324 11.8011 20.5059 11.8011ZM20.5059 10C17.7894 10 17.4494 10.0117 16.3824 10.0586C15.3192 10.1055 14.5883 10.2774 13.9551 10.5235C13.2946 10.7814 12.7357 11.1213 12.1807 11.68C11.6218 12.2348 11.2817 12.7935 11.0237 13.4499C10.7775 14.0867 10.6055 14.8134 10.5586 15.8761C10.5117 16.9467 10.5 17.2866 10.5 20.002C10.5 22.7173 10.5117 23.0572 10.5586 24.1239C10.6055 25.1866 10.7775 25.9172 11.0237 26.5501C11.2817 27.2104 11.6218 27.7691 12.1807 28.3239C12.7357 28.8787 13.2946 29.2225 13.9512 29.4765C14.5883 29.7226 15.3153 29.8945 16.3784 29.9414C17.4455 29.9883 17.7855 30 20.502 30C23.2184 30 23.5584 29.9883 24.6255 29.9414C25.6886 29.8945 26.4195 29.7226 27.0527 29.4765C27.7093 29.2225 28.2682 28.8787 28.8232 28.3239C29.3782 27.7691 29.7222 27.2104 29.9763 26.554C30.2225 25.9172 30.3945 25.1905 30.4414 24.1278C30.4883 23.0611 30.5 22.7212 30.5 20.0059C30.5 17.2905 30.4883 16.9506 30.4414 15.884C30.3945 14.8213 30.2225 14.0906 29.9763 13.4577C29.73 12.7935 29.39 12.2348 28.8311 11.68C28.276 11.1252 27.7171 10.7814 27.0605 10.5274C26.4234 10.2813 25.6964 10.1094 24.6333 10.0625C23.5623 10.0117 23.2223 10 20.5059 10Z"
                fill="white" />
            <path id="ig-vector2"
                d="M20.5059 14.8643C17.6683 14.8643 15.3662 17.1655 15.3662 20.002C15.3662 22.8385 17.6683 25.1398 20.5059 25.1398C23.3435 25.1398 25.6457 22.8385 25.6457 20.002C25.6457 17.1655 23.3435 14.8643 20.5059 14.8643ZM20.5059 23.3347C18.665 23.3347 17.172 21.8422 17.172 20.002C17.172 18.1618 18.665 16.6694 20.5059 16.6694C22.3469 16.6694 23.8399 18.1618 23.8399 20.002C23.8399 21.8422 22.3469 23.3347 20.5059 23.3347Z"
                fill="white" />
            <path id="ig-vector3"
                d="M27.0488 14.661C27.0488 15.3252 26.5094 15.8605 25.8488 15.8605C25.1844 15.8605 24.6489 15.3213 24.6489 14.661C24.6489 13.9968 25.1883 13.4615 25.8488 13.4615C26.5094 13.4615 27.0488 14.0007 27.0488 14.661Z"
                fill="white" />
        </g>
    </g>
</svg>